<svg width="221" height="36" viewBox="0 0 221 36" fill="none" xmlns="http://www.w3.org/2000/svg">
<g clip-path="url(#clip0_1102_1955)">
<path d="M6.28125 12.8125H26.3632V29.1754H6.28125V12.8125Z" fill="#2B8761"/>
<path d="M6.28125 12.8125H26.3632V14.3002H6.28125V12.8125Z" fill="white"/>
<path d="M16.3175 0.633789L2.92969 12.8128H29.7053L16.3175 0.633789Z" fill="#2B8761"/>
<path d="M16.3175 2.67915L27.4568 12.8128H29.7053L16.3175 0.633789L2.92969 12.8128H5.17793L16.3175 2.67915Z" fill="white"/>
<path d="M8.90625 18.3447H14.7169V29.1761H8.90625V18.3447Z" fill="#FFCC34"/>
<path d="M8.90625 18.3447H14.7169V19.8324H8.90625V18.3447Z" fill="white"/>
<path d="M16.4844 18.3447H23.7358V23.4583H16.4844V18.3447Z" fill="#FFCC34"/>
<path d="M16.4844 18.3447H23.7358V19.8324H16.4844V18.3447Z" fill="white"/>
<path d="M30.8225 13.2449L16.3174 0.0498047L16.0267 0.314125L1.8125 13.2449H5.84448V29.6077H26.7902V13.2449H30.8225ZM16.3174 1.21781L28.5881 12.3807H4.04656L16.3174 1.21781ZM9.33499 28.7435V18.7767H14.2814V28.7435H9.33499ZM25.926 28.7439H15.1456V17.9125H8.4708V28.7439H6.70833V13.2449H25.926V28.7439Z" fill="#122436"/>
<path d="M24.1625 23.4583V17.9126H16.0469V23.8903H24.1625V23.4583ZM16.9111 18.7768H23.2986V23.0262H16.9111V18.7768Z" fill="#122436"/>
<path d="M5.42969 29.3489V26.3684L10.6577 24.3828L17.7913 26.0798L18.7432 27.0949L18.6146 28.5961L18.8536 28.7858L27.5667 26.096L28.9292 26.3684L29.9034 27.4662L30.1583 28.4847L29.5908 29.6368L28.7378 30.3751L17.3126 35.3516L16.4062 35.4204L5.42969 32.892V29.3489Z" fill="white"/>
<path d="M0.429688 24.3716H5.42847V26.3687H0.429688V24.3716Z" fill="white"/>
<path d="M0.429688 26.293H5.42847V33.8529H0.429688V26.293Z" fill="#2B8761"/>
<path d="M4.23211 32.2353H5.0963V31.3711H4.23211V32.2353ZM2.3309 32.2353H3.19509V31.3711H2.3309V32.2353ZM0.429688 32.2353H1.29388V31.3711H0.429688V32.2353Z" fill="white"/>
<path d="M5.42969 28.696L10.4008 26.5149C10.7303 26.3704 11.0959 26.3313 11.4483 26.4035L18.8415 27.9135C18.8415 27.9135 18.382 29.7067 16.4022 29.4086C15.2885 29.2408 14.1418 29.068 14.1418 29.068L14.2741 29.5612C14.5087 30.4375 15.1788 31.1309 16.0467 31.3955C16.5753 31.5569 17.1418 31.5441 17.6627 31.3598L29.7076 27.0949C29.7076 27.0949 31.0424 28.8124 28.7381 30.3751C26.4338 31.9377 16.9926 35.4724 16.9926 35.4724L5.77334 32.7951L5.42969 28.696Z" fill="#FFCC34"/>
<path d="M30.304 27.3012C30.0926 26.7901 29.7379 26.3756 29.3051 26.0903C28.8723 25.8051 28.3609 25.6478 27.8319 25.6478C27.5662 25.6478 27.2962 25.6876 27.0315 25.7707L19.2258 28.2167C19.266 28.0466 19.2869 27.8758 19.2869 27.7073C19.2866 27.2118 19.1195 26.7388 18.8268 26.358C18.5341 25.9773 18.1125 25.6866 17.6095 25.561L11.3843 24.0055C11.2074 23.9613 11.0268 23.9393 10.8469 23.9393C10.5627 23.9393 10.2798 23.994 10.0138 24.102L5.86298 25.7848V24.5318C5.86298 24.3451 5.78601 24.1723 5.66347 24.0507C5.54194 23.9285 5.36911 23.8516 5.18277 23.8516H0.680212C0.493533 23.8516 0.321033 23.9285 0.199169 24.0507C0.0769678 24.1726 -0.000336472 24.3451 1.10112e-06 24.5318V33.6047C-0.000336472 33.7914 0.0769678 33.9642 0.199169 34.0858C0.321033 34.208 0.493533 34.2849 0.679874 34.2846H5.18277C5.36911 34.2849 5.54194 34.208 5.66347 34.0858C5.78601 33.9639 5.86331 33.7914 5.86298 33.6047V33.2621L16.3034 35.8398C16.4786 35.883 16.6569 35.9046 16.8348 35.9046C17.142 35.9046 17.4475 35.8408 17.7317 35.7149L28.9135 30.7705C29.4114 30.5504 29.8114 30.1942 30.0849 29.7662C30.3583 29.3381 30.5075 28.8375 30.5075 28.3227C30.5075 27.9818 30.4417 27.6341 30.304 27.3012ZM0.864189 24.7158H4.99879V33.4208H0.864189V24.7158ZM29.3567 29.301C29.1711 29.591 28.903 29.83 28.5641 29.9799L17.3823 34.9246C17.2088 35.0013 17.0221 35.0404 16.8351 35.0404C16.7264 35.0404 16.6177 35.0273 16.5107 35.0009L5.86298 32.3719V26.7172L10.3385 24.9028C10.5009 24.8369 10.6737 24.8035 10.8469 24.8035C10.9566 24.8035 11.0667 24.8167 11.1747 24.844L17.4002 26.3996C17.7094 26.4769 17.9623 26.6517 18.1419 26.8847C18.3208 27.1176 18.4227 27.4069 18.4227 27.707C18.4227 27.8289 18.4062 27.9527 18.3707 28.077C18.2874 28.3713 18.1125 28.6147 17.883 28.7869C17.6534 28.959 17.3712 29.0573 17.0745 29.0573C17.0076 29.0573 16.9401 29.0522 16.8719 29.0421L14.2071 28.6407L14.0785 29.4955L16.7433 29.8968C16.8544 29.9134 16.9648 29.9215 17.0745 29.9215C17.5626 29.9215 18.0261 29.7601 18.4015 29.4786C18.4653 29.4306 18.5254 29.3783 18.5841 29.3233L27.2901 26.5954C27.4704 26.5386 27.6523 26.512 27.8319 26.512C28.1887 26.512 28.5361 26.6187 28.8294 26.8121C29.1228 27.0055 29.3615 27.284 29.5053 27.6314C29.5991 27.8589 29.6433 28.0925 29.6433 28.3227C29.6433 28.6704 29.5424 29.011 29.3567 29.301Z" fill="#122436"/>
<path d="M2.93489 25.4912C2.49199 25.4912 2.13281 25.8504 2.13281 26.2929C2.13281 26.7358 2.49199 27.095 2.93489 27.095C3.37778 27.095 3.73696 26.7358 3.73696 26.2929C3.73696 25.8504 3.37778 25.4912 2.93489 25.4912Z" fill="#122436"/>
<path d="M31.7773 22.8382H20.9419C20.4257 22.8382 20.0078 22.4199 20.0078 21.9041C20.0078 21.388 20.4257 20.9697 20.9419 20.9697H31.7773C32.2935 20.9697 32.7117 21.388 32.7117 21.9041C32.7117 22.4199 32.2935 22.8382 31.7773 22.8382Z" fill="#2B8761"/>
<path d="M20.9419 21.8825H31.7773C32.1277 21.8825 32.4325 22.0753 32.5925 22.3605C32.6685 22.2255 32.7117 22.0699 32.7117 21.9041C32.7117 21.388 32.2935 20.9697 31.7773 20.9697H20.9419C20.4257 20.9697 20.0078 21.388 20.0078 21.9041C20.0078 22.0699 20.051 22.2252 20.1266 22.3605C20.2866 22.0753 20.5915 21.8825 20.9419 21.8825Z" fill="white"/>
<path d="M32.3397 28.1935H20.3828L21.2841 22.8379H31.4383L32.3397 28.1935Z" fill="#FFCC34"/>
<path d="M21.2841 24.0548H31.4383L32.1351 28.1935H32.3397L31.4383 22.8379H21.2841L20.3828 28.1935H20.5877L21.2841 24.0548Z" fill="white"/>
<path d="M24.9062 19.4751H27.8124V20.9699H24.9062V19.4751Z" fill="#2B8761"/>
<path d="M24.9062 19.4751H27.8124V20.2357H24.9062V19.4751Z" fill="white"/>
<path d="M27.2719 19.4753H25.4453V9.28164C25.4453 8.7773 25.8541 8.36816 26.3584 8.36816C26.8631 8.36816 27.2719 8.7773 27.2719 9.28164V19.4753Z" fill="#FFCC34"/>
<path d="M26.3584 8.36816C25.8541 8.36816 25.4453 8.7773 25.4453 9.28164V10.6508C25.4453 10.1462 25.8541 9.73736 26.3584 9.73736C26.8631 9.73736 27.2719 10.1462 27.2719 10.6508V9.28164C27.2719 8.7773 26.8631 8.36816 26.3584 8.36816Z" fill="white"/>
<path d="M31.9485 23.2588C32.2581 23.2207 32.5376 23.0792 32.7462 22.8703C32.993 22.6242 33.1469 22.2799 33.1465 21.9041C33.1465 21.5281 32.993 21.1841 32.7462 20.938C32.5004 20.6912 32.1561 20.5376 31.7801 20.538H28.2473V19.0432H27.7079V9.2816C27.7079 8.91128 27.5567 8.57236 27.3136 8.33032C27.0716 8.08727 26.7323 7.93604 26.3623 7.93604C25.992 7.93604 25.6528 8.08727 25.4111 8.33032C25.1683 8.57236 25.0168 8.91128 25.0168 9.2816V19.0432H24.477V20.5376H20.9446C20.5686 20.5376 20.2242 20.6912 19.9781 20.9377C19.7317 21.1838 19.5781 21.5281 19.5781 21.9038C19.5781 22.2795 19.7317 22.6242 19.9781 22.8699C20.1868 23.0792 20.4666 23.2203 20.7762 23.2585L19.8732 28.6256H32.8515L32.7668 28.1216L31.9485 23.2588ZM25.881 9.2816C25.8813 9.14725 25.9343 9.02977 26.0221 8.94133C26.1105 8.85356 26.228 8.80056 26.3623 8.80022C26.4967 8.80056 26.6142 8.85356 26.7026 8.94133C26.7904 9.02977 26.8434 9.14725 26.8437 9.2816V19.0432H25.881V9.2816ZM25.3412 19.9071H27.3835V20.5376H25.3412V19.9071ZM20.4427 21.9041C20.4427 21.7641 20.498 21.6412 20.5895 21.549C20.6817 21.4575 20.8045 21.4022 20.9446 21.4018H31.7804C31.9205 21.4022 32.0434 21.4575 32.1355 21.549C32.227 21.6412 32.2824 21.7641 32.2824 21.9041C32.2824 22.0439 32.227 22.1668 32.1355 22.2589C32.043 22.3504 31.9205 22.4058 31.7804 22.4061H20.9446C20.8045 22.4058 20.6817 22.3508 20.5895 22.2589C20.498 22.1668 20.4427 22.0439 20.4427 21.9041ZM21.6508 23.27H31.0738L31.83 27.7614H30.5935V25.3288H29.7293V27.7614H28.694V25.3288H27.8298V27.7614H26.7948V25.3288H25.9306V27.7614H24.8952V25.3288H24.0311V27.7614H22.9961V25.3288H22.1319V27.7614H20.895L21.6508 23.27Z" fill="#122436"/>
<path d="M23.6328 3.67969V4.54388H24.497V3.67969H23.6328Z" fill="#122436"/>
<path d="M21.733 3.67969H20.1484V4.54388H22.5972V3.67969H21.733Z" fill="#122436"/>
<path d="M31.4062 19.0885V20.9013H32.2704V18.2588H31.4062V19.0885Z" fill="#122436"/>
<path d="M31.4062 16.3574H32.2704V17.2216H31.4062V16.3574Z" fill="#122436"/>
<path d="M31.4062 12.5552H32.2704V13.4194H31.4062V12.5552Z" fill="#122436"/>
<path d="M32.2662 8.75274V3.67969H25.5312V4.54388H31.402V9.61693H32.2662V8.75274Z" fill="#122436"/>
<path d="M31.4062 10.6543H32.2704V11.5185H31.4062V10.6543Z" fill="#122436"/>
<path d="M31.4062 14.4561H32.2704V15.3202H31.4062V14.4561Z" fill="#122436"/>
<path d="M31.848 1.49368C31.6933 1.49301 31.5418 1.50583 31.3943 1.53081L30.7326 0.748657C30.6313 0.629156 30.4599 0.599112 30.3245 0.676416L29.6446 1.06496C29.5089 1.14227 29.4478 1.30565 29.4995 1.45317L29.8374 2.42099C29.6426 2.65122 29.4863 2.91554 29.38 3.20417L28.3716 3.38612C28.218 3.4138 28.106 3.54748 28.1053 3.70344L28.1016 4.48661C28.1009 4.6429 28.2116 4.77726 28.3652 4.80629L29.3719 4.99735C29.4758 5.28666 29.6294 5.55233 29.8222 5.78424L29.4755 6.74936C29.4228 6.8962 29.4822 7.05993 29.6173 7.13858L30.2938 7.53321C30.4285 7.61186 30.6003 7.58317 30.7022 7.46502L31.3713 6.6886C31.5185 6.71493 31.6701 6.72911 31.8247 6.72978C31.9793 6.73046 32.1308 6.71763 32.2784 6.69265L32.9403 7.47481C33.0413 7.59431 33.2128 7.62435 33.3485 7.54705L34.028 7.1585C34.1637 7.08119 34.2248 6.91781 34.1732 6.77029L33.8353 5.80247C34.03 5.57224 34.1863 5.30792 34.293 5.0193L35.301 4.83735C35.4546 4.80966 35.567 4.67598 35.5677 4.52003L35.5711 3.73686C35.5717 3.58056 35.461 3.44621 35.3074 3.41717L34.3011 3.22611C34.1971 2.93681 34.0432 2.67114 33.8504 2.43922L34.1971 1.4741C34.2501 1.32692 34.1904 1.16353 34.0553 1.08488L33.3792 0.690256C33.2442 0.611602 33.0723 0.640296 32.9704 0.758446L32.3013 1.53486C32.1541 1.50887 32.0029 1.49436 31.848 1.49368ZM33.1456 4.11798C33.1422 4.84072 32.5535 5.42439 31.8304 5.42101C31.1077 5.41763 30.524 4.82924 30.5274 4.10616C30.5304 3.38308 31.1191 2.79975 31.8422 2.80279C32.5653 2.80617 33.1486 3.39489 33.1456 4.11798Z" fill="#FFCC34"/>
<path d="M33.1417 4.11793C33.1383 4.84068 32.5496 5.42434 31.8265 5.42097C31.1037 5.41759 30.5201 4.8292 30.5235 4.10612C30.5265 3.38303 31.1152 2.79971 31.8383 2.80275C32.5614 2.80612 33.1447 3.39485 33.1417 4.11793Z" fill="white"/>
<path d="M33.1827 8.02199C32.966 8.02199 32.753 7.92916 32.6048 7.75464L32.0944 7.15105C32.0022 7.15882 31.9067 7.16253 31.8176 7.16253C31.7251 7.16186 31.6326 7.15747 31.5401 7.14869L31.0243 7.74721C30.7859 8.02368 30.3849 8.09018 30.0703 7.90688L29.3941 7.51226C29.0795 7.32896 28.9401 6.94649 29.0636 6.60351L29.331 5.8595C29.2243 5.70759 29.1322 5.54657 29.0552 5.37812L28.2795 5.2306C27.9213 5.16275 27.6627 4.84914 27.6641 4.48456L27.6678 3.70173C27.6698 3.33681 27.9311 3.02557 28.2896 2.96076L29.0667 2.82066C29.145 2.65289 29.2385 2.49288 29.3465 2.34165L29.0859 1.59561C28.9661 1.25162 29.1082 0.870501 29.4249 0.689899L30.1047 0.301352C30.421 0.120413 30.8214 0.191303 31.057 0.469126L31.5674 1.07271C31.6596 1.06494 31.749 1.06123 31.8449 1.06157C31.9374 1.06191 32.0296 1.06663 32.1221 1.07541L32.6379 0.476553C32.8755 0.200755 33.2766 0.133578 33.5919 0.316881L34.268 0.711504C34.583 0.895144 34.7217 1.27761 34.5985 1.62059L34.3315 2.36426C34.4378 2.51617 34.53 2.67719 34.6069 2.84564L35.3827 2.99316C35.7408 3.06101 35.9994 3.37462 35.9977 3.7392L35.9944 4.52237C35.993 4.88695 35.7314 5.19853 35.3726 5.26301L34.5955 5.40344C34.5171 5.57121 34.4236 5.73122 34.3156 5.88245L34.5762 6.62883C34.6967 6.97248 34.5543 7.3536 34.2373 7.53454L33.5578 7.92275C33.4396 7.98992 33.3107 8.02199 33.1827 8.02199ZM32.4438 6.22577L33.2067 7.12776L33.7306 6.82833L33.3407 5.71198L33.5004 5.52328C33.6658 5.32816 33.7941 5.10806 33.8825 4.86973L33.9679 4.63816L35.1305 4.42852L35.1332 3.82528L33.9723 3.60485L33.8893 3.37226C33.8032 3.13326 33.6766 2.91215 33.5129 2.71534L33.3549 2.52529L33.7549 1.41264L33.234 1.10849L32.4627 2.00373L32.22 1.96019C32.0957 1.93791 31.9681 1.92643 31.8412 1.92576H31.8409C31.7112 1.92643 31.5867 1.93555 31.4618 1.95681L31.2187 1.99833L30.4558 1.09634L29.9319 1.39543L30.3218 2.51178L30.1621 2.70015C29.9967 2.89594 29.8681 3.1157 29.7803 3.35369L29.6946 3.5856L28.532 3.79524L28.5293 4.39882L29.6902 4.61892L29.7732 4.8515C29.8593 5.09017 29.9859 5.31128 30.1496 5.50842L30.3076 5.69814L29.9076 6.81112L30.4288 7.11493L31.2001 6.22003L31.4425 6.26357C31.5674 6.28585 31.695 6.29767 31.8216 6.29801C31.9455 6.29632 32.0762 6.28788 32.2011 6.26695L32.4438 6.22577ZM31.8311 5.85308C31.8284 5.85308 31.8257 5.85308 31.8233 5.85308C30.8629 5.8487 30.0855 5.06418 30.0899 4.10412C30.0919 3.63894 30.2749 3.20246 30.6053 2.87501C30.9335 2.54959 31.3686 2.37068 31.8307 2.37068H31.8388C32.304 2.37304 32.7405 2.55601 33.0679 2.88615C33.3951 3.21664 33.5743 3.65481 33.5723 4.11964C33.5679 5.077 32.7874 5.85308 31.8311 5.85308ZM31.8307 3.23486C31.5978 3.23486 31.3791 3.325 31.2137 3.48906C31.0472 3.65379 30.9551 3.87389 30.9541 4.10783C30.9517 4.59157 31.3436 4.98687 31.827 4.9889H31.8311C32.3128 4.9889 32.7057 4.59832 32.7081 4.11593C32.7091 3.88166 32.6186 3.66088 32.4539 3.49446C32.2888 3.32837 32.0691 3.23588 31.8348 3.23486C31.8334 3.23486 31.8321 3.23486 31.8307 3.23486Z" fill="#122436"/>
</g>
<path d="M55.792 28.312C58.816 28.312 61.528 26.992 63.064 24.688L60.136 22.624C59.224 24.136 57.616 24.952 55.792 24.952C52.792 24.952 50.704 22.744 50.704 19.6C50.704 16.432 52.816 14.248 55.816 14.248C57.592 14.248 59.08 15.016 59.968 16.24L62.992 14.272C61.552 12.304 58.984 10.888 55.816 10.888C50.8 10.888 47.056 14.464 47.056 19.6C47.056 24.736 50.776 28.312 55.792 28.312ZM69.5652 24.76V11.2H66.0612V28H77.8692V24.76H69.5652ZM83.9089 24.76V21.136H92.4049V17.872H83.9089V14.44H92.7889V11.2H80.4049V28H92.9809V24.76H83.9089ZM108.207 28H111.927L105.327 11.2H101.247L94.6469 28H98.3669L99.7829 24.232H106.791L108.207 28ZM100.983 20.968L103.287 14.8L105.591 20.968H100.983ZM125.404 11.2V21.808L117.58 11.2H114.46V28H117.916V17.344L125.74 28H128.86V11.2H125.404ZM136.268 11.2H132.764V28H136.268V11.2ZM151.091 11.2V21.808L143.267 11.2H140.147V28H143.603V17.344L151.427 28H154.547V11.2H151.091ZM174.772 19.864C174.772 19.24 174.748 18.88 174.7 18.64H166.372V21.544H170.884C170.332 23.728 168.7 24.952 166.396 24.952C163.252 24.952 161.212 22.72 161.212 19.6C161.212 16.456 163.276 14.248 166.372 14.248C168.028 14.248 169.396 14.872 170.428 16.072L173.14 13.792C171.412 11.848 169.012 10.888 166.396 10.888C161.38 10.888 157.564 14.392 157.564 19.576C157.564 24.736 161.308 28.312 166.324 28.312C171.268 28.312 174.82 24.856 174.772 19.864ZM179.372 28.312C180.524 28.312 181.46 27.376 181.46 26.224C181.46 25.072 180.524 24.16 179.372 24.16C178.196 24.16 177.284 25.072 177.284 26.224C177.284 27.376 178.22 28.312 179.372 28.312ZM192.714 28.312C195.738 28.312 198.45 26.992 199.986 24.688L197.058 22.624C196.146 24.136 194.538 24.952 192.714 24.952C189.714 24.952 187.626 22.744 187.626 19.6C187.626 16.432 189.738 14.248 192.738 14.248C194.514 14.248 196.002 15.016 196.89 16.24L199.914 14.272C198.474 12.304 195.906 10.888 192.738 10.888C187.722 10.888 183.978 14.464 183.978 19.6C183.978 24.736 187.698 28.312 192.714 28.312ZM210.481 28.312C215.545 28.312 219.289 24.736 219.289 19.6C219.289 14.44 215.545 10.888 210.481 10.888C205.417 10.888 201.673 14.464 201.673 19.6C201.673 24.736 205.417 28.312 210.481 28.312ZM210.481 24.952C207.409 24.952 205.321 22.768 205.321 19.6C205.321 16.432 207.409 14.248 210.481 14.248C213.553 14.248 215.665 16.432 215.665 19.6C215.665 22.768 213.553 24.952 210.481 24.952Z" fill="#2B8761"/>
<defs>
<clipPath id="clip0_1102_1955">
<rect width="36" height="36" fill="white"/>
</clipPath>
</defs>
</svg>
