<?xml version="1.0" encoding="UTF-8"?>
<svg version="1.1" xmlns="http://www.w3.org/2000/svg" width="72" height="73">
<path d="M0 0 C1.04414062 -0.00386719 2.08828125 -0.00773438 3.1640625 -0.01171875 C4.78441406 0.00568359 4.78441406 0.00568359 6.4375 0.0234375 C7.51773438 0.01183594 8.59796875 0.00023438 9.7109375 -0.01171875 C11.27714844 -0.00591797 11.27714844 -0.00591797 12.875 0 C13.82246094 0.00338379 14.76992188 0.00676758 15.74609375 0.01025391 C20.18309485 0.65020599 22.74061076 2.55807107 25.5625 5.9609375 C27.92003216 10.2830798 29.1993494 14.65219353 30.4375 19.3984375 C31.4275 19.3984375 32.4175 19.3984375 33.4375 19.3984375 C33.4375 20.3884375 33.4375 21.3784375 33.4375 22.3984375 C31.7875 22.3984375 30.1375 22.3984375 28.4375 22.3984375 C27.74914062 20.70074219 27.74914062 20.70074219 27.046875 18.96875 C26.42778493 17.4866859 25.8079545 16.00493091 25.1875 14.5234375 C24.88714844 13.77707031 24.58679687 13.03070313 24.27734375 12.26171875 C23.97441406 11.54628906 23.67148437 10.83085937 23.359375 10.09375 C22.95090332 9.1039917 22.95090332 9.1039917 22.53417969 8.09423828 C21.09929536 5.87547014 19.91211249 5.28918727 17.4375 4.3984375 C15.08963032 4.0940075 15.08963032 4.0940075 12.59375 4.1328125 C11.21896484 4.12894531 11.21896484 4.12894531 9.81640625 4.125 C8.86636719 4.13273438 7.91632812 4.14046875 6.9375 4.1484375 C5.51244141 4.13683594 5.51244141 4.13683594 4.05859375 4.125 C3.14207031 4.12757812 2.22554687 4.13015625 1.28125 4.1328125 C0.03118164 4.13619629 0.03118164 4.13619629 -1.24414062 4.13964844 C-3.8377392 4.42916134 -5.38363156 4.96717178 -7.5625 6.3984375 C-8.84997926 8.03786402 -8.84997926 8.03786402 -9.82421875 9.98828125 C-10.21665771 10.68953125 -10.60909668 11.39078125 -11.01342773 12.11328125 C-11.42149658 12.84675781 -11.82956543 13.58023437 -12.25 14.3359375 C-17.48463434 23.26762416 -17.48463434 23.26762416 -22.5 24.8984375 C-24.93720462 25.35845434 -27.06892052 25.3984375 -29.5625 25.3984375 C-29.5625 27.7084375 -29.5625 30.0184375 -29.5625 32.3984375 C-31.5425 32.8934375 -31.5425 32.8934375 -33.5625 33.3984375 C-33.5625 35.0484375 -33.5625 36.6984375 -33.5625 38.3984375 C-32.2425 38.3984375 -30.9225 38.3984375 -29.5625 38.3984375 C-29.48 37.8209375 -29.3975 37.2434375 -29.3125 36.6484375 C-28.30972163 33.64010238 -27.05416911 32.35136734 -24.5625 30.3984375 C-20.60744314 29.08008521 -18.80409912 29.31790446 -14.8125 30.6484375 C-11.5625 32.3984375 -11.5625 32.3984375 -9.5625 35.3984375 C-9.5625 36.3884375 -9.5625 37.3784375 -9.5625 38.3984375 C-8.9025 38.3984375 -8.2425 38.3984375 -7.5625 38.3984375 C-7.43875 37.6146875 -7.315 36.8309375 -7.1875 36.0234375 C-6.5625 33.3984375 -6.5625 33.3984375 -4.5625 31.3984375 C-0.63055246 31.02036562 1.78051994 31.05566529 5.3125 32.8984375 C9.45063161 34.88474067 12.91769523 35.0347999 17.4375 34.3984375 C19.45336684 33.43082142 21.45503602 32.43276654 23.4375 31.3984375 C29.34246215 30.79793287 29.34246215 30.79793287 32.375 32.4609375 C34.06164729 35.53658845 33.79348975 37.9572033 33.4375 41.3984375 C32.9425 42.1821875 32.4475 42.9659375 31.9375 43.7734375 C29.75124722 47.59937986 29.84091884 51.08469683 30.4375 55.3984375 C31.38961112 57.42167363 32.38523272 59.42543634 33.4375 61.3984375 C33.94103703 64.99513055 33.88472925 66.659537 32 69.7734375 C28.23630462 72.16017116 24.77793107 71.73231681 20.4375 71.3984375 C20.39508277 69.06548975 20.39657063 66.73141183 20.4375 64.3984375 C20.7675 64.0684375 21.0975 63.7384375 21.4375 63.3984375 C21.50929964 61.87915712 21.52142007 60.35676268 21.5 58.8359375 C21.49097656 58.00964844 21.48195312 57.18335938 21.47265625 56.33203125 C21.46105469 55.69394531 21.44945312 55.05585937 21.4375 54.3984375 C20.4475 54.3984375 19.4575 54.3984375 18.4375 54.3984375 C18.4375 51.4284375 18.4375 48.4584375 18.4375 45.3984375 C17.7775 45.3984375 17.1175 45.3984375 16.4375 45.3984375 C16.4375 48.3684375 16.4375 51.3384375 16.4375 54.3984375 C14.1275 54.3984375 11.8175 54.3984375 9.4375 54.3984375 C9.4375 51.4284375 9.4375 48.4584375 9.4375 45.3984375 C8.7775 45.3984375 8.1175 45.3984375 7.4375 45.3984375 C7.4375 46.53023437 7.4375 47.66203125 7.4375 48.828125 C7.4375 53.68489583 7.4375 58.54166667 7.4375 63.3984375 C8.4275 64.0584375 9.4175 64.7184375 10.4375 65.3984375 C10.625 68.5234375 10.625 68.5234375 10.4375 71.3984375 C9.4475 71.3984375 8.4575 71.3984375 7.4375 71.3984375 C7.4375 70.4084375 7.4375 69.4184375 7.4375 68.3984375 C6.138125 69.171875 6.138125 69.171875 4.8125 69.9609375 C0.98670229 71.59044393 -0.63756853 71.61952729 -4.5625 70.3984375 C-6.4375 69.2109375 -6.4375 69.2109375 -7.5625 67.3984375 C-8.0153959 63.92623557 -8.02620524 62.09399536 -6.0625 59.1484375 C-3.82297934 55.04264963 -4.15804614 50.98743327 -4.5625 46.3984375 C-4.8925 45.4084375 -5.2225 44.4184375 -5.5625 43.3984375 C-7.57758358 42.66519954 -7.57758358 42.66519954 -9.5625 42.3984375 C-9.645 42.9759375 -9.7275 43.5534375 -9.8125 44.1484375 C-10.81527837 47.15677262 -12.07083089 48.44550766 -14.5625 50.3984375 C-18.51755686 51.71678979 -20.32090088 51.47897054 -24.3125 50.1484375 C-27.5625 48.3984375 -27.5625 48.3984375 -29.5625 45.3984375 C-29.5625 44.4084375 -29.5625 43.4184375 -29.5625 42.3984375 C-30.531875 42.4190625 -31.50125 42.4396875 -32.5 42.4609375 C-35.5625 42.3984375 -35.5625 42.3984375 -36.5625 41.3984375 C-36.63575168 38.53576183 -36.65488205 35.6977185 -36.625 32.8359375 C-36.62048828 32.02962891 -36.61597656 31.22332031 -36.61132812 30.39257812 C-36.59950518 28.39449994 -36.58156914 26.39645967 -36.5625 24.3984375 C-35.52351563 24.223125 -34.48453125 24.0478125 -33.4140625 23.8671875 C-26.95224586 22.48810816 -21.45436203 21.1996354 -17.44921875 15.609375 C-15.3298438 12.23746717 -13.4795579 8.7362546 -11.79418945 5.12841797 C-8.79471723 0.91548235 -4.9378354 0.01763513 0 0 Z M-33.5625 26.3984375 C-32.5625 29.3984375 -32.5625 29.3984375 -32.5625 29.3984375 Z M-26.5625 36.3984375 C-27.02518457 40.03381625 -26.96958036 42.46454727 -25.5 45.8359375 C-23.52445691 47.70861321 -23.52445691 47.70861321 -20.125 47.8359375 C-15.66451366 47.33077578 -15.66451366 47.33077578 -12.5625 44.3984375 C-12.09981543 40.76305875 -12.15541964 38.33232773 -13.625 34.9609375 C-15.60054309 33.08826179 -15.60054309 33.08826179 -19 32.9609375 C-23.46048634 33.46609922 -23.46048634 33.46609922 -26.5625 36.3984375 Z M-2.5625 34.3984375 C-3.2225 35.0584375 -3.8825 35.7184375 -4.5625 36.3984375 C-4.24922906 38.56863327 -3.56965068 40.38101831 -2.73828125 42.40625 C-0.25669806 48.49230471 -0.44308147 53.18596202 -2.5625 59.3984375 C-3.2225 60.3884375 -3.8825 61.3784375 -4.5625 62.3984375 C-4.2503236 65.04476037 -4.2503236 65.04476037 -3.5625 67.3984375 C-1.71524948 68.09003151 -1.71524948 68.09003151 0.4375 68.3984375 C1.4275 67.7384375 2.4175 67.0784375 3.4375 66.3984375 C3.1075 65.4084375 2.7775 64.4184375 2.4375 63.3984375 C1.7775 63.3984375 1.1175 63.3984375 0.4375 63.3984375 C0.92578125 57.34375 0.92578125 57.34375 1.4375 55.3984375 C2.4275 54.7384375 3.4175 54.0784375 4.4375 53.3984375 C4.83159531 51.29607321 4.83159531 51.29607321 4.8125 48.9609375 C5.15871782 44.65398783 5.15871782 44.65398783 7.6875 42.3359375 C10.61375719 41.33834982 12.38197078 40.94010812 15.4375 41.3984375 C18.66246559 43.0109203 20.91448527 44.87542277 23.4375 47.3984375 C24.0975 47.3984375 24.7575 47.3984375 25.4375 47.3984375 C25.3653125 48.59082031 25.293125 49.78320312 25.21875 51.01171875 C25.12495339 52.57812221 25.03120595 54.14452861 24.9375 55.7109375 C24.88980469 56.49662109 24.84210937 57.28230469 24.79296875 58.09179688 C24.72529297 59.2277832 24.72529297 59.2277832 24.65625 60.38671875 C24.61435547 61.08321533 24.57246094 61.77971191 24.52929688 62.49731445 C24.45049029 64.12940716 24.4375 65.76444329 24.4375 67.3984375 C25.9225 67.8934375 25.9225 67.8934375 27.4375 68.3984375 C28.4275 67.7384375 29.4175 67.0784375 30.4375 66.3984375 C29.9893578 63.78427469 29.48206341 61.50054064 28.41796875 59.0625 C26.77065167 54.58652292 26.95243511 50.10356697 27.4375 45.3984375 C28.37692486 43.36927981 29.36348385 41.35968438 30.4375 39.3984375 C30.23314192 36.61196193 30.23314192 36.61196193 29.4375 34.3984375 C26.22075642 34.11460718 24.6591713 34.27176818 21.8125 35.8984375 C17.01323842 38.03144265 12.61698227 38.00052337 7.4375 37.3984375 C4 35.8984375 4 35.8984375 1.4375 34.3984375 C0.1175 34.3984375 -1.2025 34.3984375 -2.5625 34.3984375 Z M3.4375 56.3984375 C3.4375 58.0484375 3.4375 59.6984375 3.4375 61.3984375 C3.7675 61.3984375 4.0975 61.3984375 4.4375 61.3984375 C4.4375 59.7484375 4.4375 58.0984375 4.4375 56.3984375 C4.1075 56.3984375 3.7775 56.3984375 3.4375 56.3984375 Z " fill="#2A8660" transform="translate(37.5625,0.6015625)"/>
<path d="M0 0 C1.06669922 0.00322266 2.13339844 0.00644531 3.23242188 0.00976562 C4.29525391 -0.00634766 5.35808594 -0.02246094 6.453125 -0.0390625 C7.98163086 -0.0400293 7.98163086 -0.0400293 9.54101562 -0.04101562 C10.4761499 -0.04399658 11.41128418 -0.04697754 12.37475586 -0.05004883 C15.23258377 0.38959483 16.06008826 1.05929121 17.79492188 3.32226562 C18.96289062 5.66210938 18.96289062 5.66210938 19.98242188 8.25976562 C20.32660156 9.11441406 20.67078125 9.9690625 21.02539062 10.84960938 C21.79492188 13.32226562 21.79492188 13.32226562 21.79492188 17.32226562 C8.59492187 17.32226562 -4.60507813 17.32226562 -18.20507812 17.32226562 C-16.70649631 13.57581109 -15.26520379 10.53912329 -13.20507812 7.13476562 C-12.68945312 6.27496094 -12.17382812 5.41515625 -11.64257812 4.52929688 C-8.34302196 -0.53659779 -5.68787814 0.03962423 0 0 Z M-8.45507812 5.44726562 C-10.19970589 8.31343982 -11.70449953 11.32110844 -13.20507812 14.32226562 C-8.58507812 14.32226562 -3.96507812 14.32226562 0.79492188 14.32226562 C0.79492188 10.69226562 0.79492188 7.06226562 0.79492188 3.32226562 C-4.33706071 2.734125 -4.33706071 2.734125 -8.45507812 5.44726562 Z M3.79492188 3.32226562 C3.79492188 6.95226563 3.79492188 10.58226563 3.79492188 14.32226562 C8.41492188 14.32226562 13.03492188 14.32226562 17.79492188 14.32226562 C17.32054687 12.69289063 16.84617187 11.06351563 16.35742188 9.38476562 C16.09058594 8.46824219 15.82375 7.55171875 15.54882812 6.60742188 C15.00466136 4.38201632 15.00466136 4.38201632 13.79492188 3.32226562 C10.45873956 3.17969373 7.13516581 3.27998406 3.79492188 3.32226562 Z " fill="#2A8660" transform="translate(41.205078125,5.677734375)"/>
<path d="M0 0 C1.875 1.125 1.875 1.125 3 3 C3.39365568 6.14924548 3.52854531 8.11909116 1.875 10.875 C-0.88090884 12.52854531 -2.85075452 12.39365568 -6 12 C-7.875 10.875 -7.875 10.875 -9 9 C-9.39365568 5.85075452 -9.52854531 3.88090884 -7.875 1.125 C-5.11909116 -0.52854531 -3.14924548 -0.39365568 0 0 Z M-4 3 C-4.66 4.32 -5.32 5.64 -6 7 C-4.02 7.99 -4.02 7.99 -2 9 C-1.34 7.68 -0.68 6.36 0 5 C-1.32 4.34 -2.64 3.68 -4 3 Z " fill="#2A8660" transform="translate(21,35)"/>
<path d="M0 0 C0.66 0 1.32 0 2 0 C2.474375 0.804375 2.94875 1.60875 3.4375 2.4375 C4.79983672 5.2918076 4.79983672 5.2918076 8 6 C8 6.99 8 7.98 8 9 C6.35 9.33 4.7 9.66 3 10 C2.67 11.65 2.34 13.3 2 15 C1.01 14.67 0.02 14.34 -1 14 C-2 12 -2 12 -3 10 C-3.99 9.67 -4.98 9.34 -6 9 C-6 8.01 -6 7.02 -6 6 C-5.38125 5.7525 -4.7625 5.505 -4.125 5.25 C-1.64931313 3.79371361 -1.04874998 2.62187494 0 0 Z " fill="#2A8660" transform="translate(7,1)"/>
<path d="M0 0 C0.99 0 1.98 0 3 0 C3.2475 0.639375 3.495 1.27875 3.75 1.9375 C4.81562433 4.18741541 4.81562433 4.18741541 7.125 4.75 C7.74375 4.8325 8.3625 4.915 9 5 C9 5.99 9 6.98 9 8 C8.38125 8.2475 7.7625 8.495 7.125 8.75 C4.64931313 10.20628639 4.04874998 11.37812506 3 14 C2.01 13.67 1.02 13.34 0 13 C-0.33 12.01 -0.66 11.02 -1 10 C-3.00016466 8.79117904 -3.00016466 8.79117904 -5 8 C-5 7.01 -5 6.02 -5 5 C-4.360625 4.731875 -3.72125 4.46375 -3.0625 4.1875 C-0.66868314 3.11332248 -0.66868314 3.11332248 0 0 Z " fill="#2A8660" transform="translate(6,50)"/>
<path d="M0 0 C2 1 2 1 2.875 2.9375 C4.22909764 5.42001234 5.42178493 5.96871397 8 7 C6.36587557 8.70840281 5.13093906 9.93453047 3 11 C1.86649466 13.01669827 1.86649466 13.01669827 1 15 C0.34 15 -0.32 15 -1 15 C-1.33 13.35 -1.66 11.7 -2 10 C-3.65 9.67 -5.3 9.34 -7 9 C-6.67 8.01 -6.34 7.02 -6 6 C-5.01 5.67 -4.02 5.34 -3 5 C-1.30117552 2.50240018 -1.30117552 2.50240018 0 0 Z " fill="#2A8660" transform="translate(21,57)"/>
<path d="M0 0 C1.65 0 3.3 0 5 0 C5 0.99 5 1.98 5 3 C3.35 3 1.7 3 0 3 C0 2.01 0 1.02 0 0 Z " fill="#2A8660" transform="translate(58,25)"/>
<path d="M0 0 C1.65 0 3.3 0 5 0 C5 0.99 5 1.98 5 3 C3.35 3 1.7 3 0 3 C0 2.01 0 1.02 0 0 Z " fill="#2A8660" transform="translate(40,25)"/>
</svg>
