<svg width="70.574219" height="70.583984" viewBox="0 0 70.5742 70.584" fill="none" xmlns="http://www.w3.org/2000/svg" xmlns:xlink="http://www.w3.org/1999/xlink">
	<desc>
			Created with Pixso.
	</desc>
	<defs/>
	<path id="Vector" d="M35.42 48.01C35.78 48.01 36.14 47.86 36.4 47.6C36.66 47.34 36.8 46.99 36.8 46.62L36.8 40.01C36.8 39.65 36.66 39.29 36.4 39.04C36.14 38.78 35.78 38.63 35.42 38.63C35.05 38.63 34.7 38.78 34.44 39.04C34.18 39.29 34.03 39.65 34.03 40.01L34.03 46.62C34.03 46.99 34.18 47.34 34.44 47.6C34.7 47.86 35.05 48.01 35.42 48.01Z" fill="#2B8761" fill-opacity="1.000000" fill-rule="nonzero"/>
	<path id="Vector" d="M35.42 18.56C35.78 18.56 36.14 18.41 36.4 18.15C36.66 17.89 36.8 17.54 36.8 17.17L36.8 10.6C36.8 10.23 36.66 9.88 36.4 9.62C36.14 9.36 35.78 9.21 35.42 9.21C35.05 9.21 34.7 9.36 34.44 9.62C34.18 9.88 34.03 10.23 34.03 10.6L34.03 17.2C34.04 17.57 34.19 17.91 34.45 18.16C34.71 18.42 35.06 18.56 35.42 18.56Z" fill="#2B8761" fill-opacity="1.000000" fill-rule="nonzero"/>
	<path id="Vector" d="M35.42 33.3C35.78 33.3 36.14 33.15 36.4 32.89C36.66 32.63 36.8 32.28 36.8 31.91L36.8 25.31C36.8 24.94 36.66 24.59 36.4 24.33C36.14 24.07 35.78 23.92 35.42 23.92C35.05 23.92 34.7 24.07 34.44 24.33C34.18 24.59 34.03 24.94 34.03 25.31L34.03 31.91C34.03 32.28 34.18 32.63 34.44 32.89C34.7 33.15 35.05 33.3 35.42 33.3Z" fill="#2B8761" fill-opacity="1.000000" fill-rule="nonzero"/>
	<path id="Vector" d="M45.24 18.56C45.59 18.55 45.94 18.41 46.19 18.16C46.45 17.9 46.6 17.56 46.6 17.2L46.6 10.6C46.6 10.23 46.46 9.88 46.2 9.62C45.94 9.36 45.58 9.21 45.22 9.21C44.85 9.21 44.5 9.36 44.24 9.62C43.98 9.88 43.83 10.23 43.83 10.6L43.83 17.2C43.84 17.57 44 17.91 44.26 18.17C44.52 18.42 44.87 18.56 45.24 18.56Z" fill="#2B8761" fill-opacity="1.000000" fill-rule="nonzero"/>
	<path id="Vector" d="M45.24 33.3C45.6 33.29 45.95 33.15 46.21 32.89C46.46 32.63 46.6 32.28 46.6 31.91L46.6 25.31C46.6 24.94 46.46 24.59 46.2 24.33C45.94 24.07 45.58 23.92 45.22 23.92C44.85 23.92 44.5 24.07 44.24 24.33C43.98 24.59 43.83 24.94 43.83 25.31L43.83 31.91C43.83 32.1 43.87 32.28 43.94 32.45C44.01 32.62 44.12 32.77 44.25 32.9C44.38 33.03 44.53 33.13 44.7 33.2C44.87 33.27 45.05 33.3 45.24 33.3Z" fill="#2B8761" fill-opacity="1.000000" fill-rule="nonzero"/>
	<path id="Vector" d="M45.24 48.01C45.6 48 45.95 47.85 46.21 47.59C46.46 47.34 46.6 46.99 46.6 46.62L46.6 40.01C46.6 39.65 46.46 39.29 46.2 39.04C45.94 38.78 45.58 38.63 45.22 38.63C44.85 38.63 44.5 38.78 44.24 39.04C43.98 39.29 43.83 39.65 43.83 40.01L43.83 46.62C43.83 46.8 43.87 46.99 43.94 47.15C44.01 47.32 44.12 47.48 44.25 47.61C44.38 47.73 44.53 47.84 44.7 47.9C44.87 47.97 45.05 48.01 45.24 48.01Z" fill="#2B8761" fill-opacity="1.000000" fill-rule="nonzero"/>
	<path id="Vector" d="M61.46 53.27L62.64 53.27C63 53.27 63.35 53.12 63.62 52.86C63.87 52.6 64.02 52.25 64.02 51.88C64.02 51.52 63.87 51.16 63.62 50.9C63.35 50.64 63 50.5 62.64 50.5L61.46 50.5C61.1 50.5 60.75 50.64 60.49 50.9C60.23 51.16 60.08 51.52 60.08 51.88C60.08 52.25 60.23 52.6 60.49 52.86C60.75 53.12 61.1 53.27 61.46 53.27Z" fill="#2B8761" fill-opacity="1.000000" fill-rule="nonzero"/>
	<path id="Vector" d="M61.46 45.34L62.64 45.34C63 45.34 63.35 45.19 63.62 44.93C63.87 44.67 64.02 44.32 64.02 43.95C64.02 43.59 63.87 43.23 63.62 42.98C63.35 42.72 63 42.57 62.64 42.57L61.46 42.57C61.1 42.57 60.75 42.72 60.49 42.98C60.23 43.23 60.08 43.59 60.08 43.95C60.08 44.32 60.23 44.67 60.49 44.93C60.75 45.19 61.1 45.34 61.46 45.34Z" fill="#2B8761" fill-opacity="1.000000" fill-rule="nonzero"/>
	<path id="Vector" d="M61.46 61.12L62.64 61.12C63 61.12 63.35 60.98 63.62 60.72C63.87 60.46 64.02 60.11 64.02 59.74C64.02 59.37 63.87 59.02 63.62 58.76C63.35 58.5 63 58.35 62.64 58.35L61.46 58.35C61.1 58.35 60.75 58.5 60.49 58.76C60.23 59.02 60.08 59.37 60.08 59.74C60.08 60.11 60.23 60.46 60.49 60.72C60.75 60.98 61.1 61.12 61.46 61.12Z" fill="#2B8761" fill-opacity="1.000000" fill-rule="nonzero"/>
	<path id="Vector" d="M18.74 37.48L19.9 37.48C20.27 37.48 20.62 37.34 20.88 37.08C21.14 36.82 21.29 36.47 21.29 36.1C21.29 35.73 21.14 35.38 20.88 35.12C20.62 34.86 20.27 34.71 19.9 34.71L18.74 34.71C18.37 34.71 18.02 34.86 17.76 35.12C17.5 35.38 17.35 35.73 17.35 36.1C17.35 36.47 17.5 36.82 17.76 37.08C18.02 37.34 18.37 37.48 18.74 37.48Z" fill="#2B8761" fill-opacity="1.000000" fill-rule="nonzero"/>
	<path id="Vector" d="M18.74 29.55L19.9 29.55C20.27 29.55 20.62 29.41 20.88 29.15C21.14 28.89 21.29 28.54 21.29 28.17C21.29 27.8 21.14 27.45 20.88 27.19C20.62 26.93 20.27 26.79 19.9 26.79L18.74 26.79C18.37 26.79 18.02 26.93 17.76 27.19C17.5 27.45 17.35 27.8 17.35 28.17C17.35 28.54 17.5 28.89 17.76 29.15C18.02 29.41 18.37 29.55 18.74 29.55Z" fill="#2B8761" fill-opacity="1.000000" fill-rule="nonzero"/>
	<path id="Vector" d="M18.74 45.34L19.9 45.34C20.27 45.34 20.62 45.19 20.88 44.93C21.14 44.67 21.29 44.32 21.29 43.95C21.29 43.59 21.14 43.23 20.88 42.98C20.62 42.72 20.27 42.57 19.9 42.57L18.74 42.57C18.37 42.57 18.02 42.72 17.76 42.98C17.5 43.23 17.35 43.59 17.35 43.95C17.35 44.32 17.5 44.67 17.76 44.93C18.02 45.19 18.37 45.34 18.74 45.34Z" fill="#2B8761" fill-opacity="1.000000" fill-rule="nonzero"/>
	<path id="Vector" d="M69.19 31.26L56.24 31.26L56.24 1.38C56.24 1.01 56.1 0.66 55.83 0.4C55.58 0.14 55.23 0 54.86 0L25.8 0C25.44 0.01 25.09 0.16 24.84 0.41C24.59 0.67 24.45 1.02 24.45 1.38L24.45 18.67L12.84 18.67C12.48 18.67 12.12 18.81 11.87 19.07C11.6 19.33 11.46 19.68 11.46 20.05L11.46 37.27C11.46 37.64 11.6 37.99 11.87 38.25C12.12 38.51 12.48 38.65 12.84 38.65C13.21 38.65 13.57 38.51 13.82 38.25C14.08 37.99 14.23 37.64 14.23 37.27L14.23 21.44L24.45 21.44L24.45 67.77L14.17 67.77C13.8 67.77 13.45 67.92 13.19 68.18C12.93 68.43 12.78 68.79 12.78 69.15C12.78 69.52 12.93 69.87 13.19 70.13C13.45 70.39 13.8 70.54 14.17 70.54L64.46 70.54C66.07 70.54 67.62 69.9 68.77 68.75C69.91 67.61 70.56 66.06 70.57 64.45L70.57 32.65C70.57 32.28 70.42 31.93 70.17 31.67C69.91 31.41 69.55 31.26 69.19 31.26ZM36.8 67.77L36.8 56.75L43.85 56.75L43.85 67.77L36.8 67.77ZM53.47 67.77L46.6 67.77L46.6 55.36C46.6 55 46.46 54.64 46.2 54.38C45.94 54.12 45.59 53.98 45.22 53.98L35.42 53.98C35.05 53.98 34.7 54.12 34.44 54.38C34.18 54.64 34.03 55 34.03 55.36L34.03 67.77L27.18 67.77L27.18 2.73L53.47 2.73L53.47 67.77ZM67.8 64.45C67.8 65.34 67.45 66.19 66.82 66.82C66.19 67.45 65.34 67.8 64.46 67.8L56.25 67.8L56.25 34.03L67.8 34.03L67.8 64.45Z" fill="#2B8761" fill-opacity="1.000000" fill-rule="nonzero"/>
	<path id="Vector" d="M16.77 51.38C16.77 45.73 9.38 41.48 9.06 41.3C8.85 41.18 8.62 41.12 8.38 41.12C8.14 41.12 7.91 41.18 7.7 41.3C7.39 41.48 0 45.73 0 51.38C0 56.46 3.03 60.67 7 61.48L7 69.19C7 69.56 7.14 69.91 7.4 70.17C7.66 70.43 8.01 70.58 8.38 70.58C8.75 70.58 9.1 70.43 9.36 70.17C9.62 69.91 9.76 69.56 9.76 69.19L9.76 61.52C13.73 60.67 16.77 56.46 16.77 51.38ZM2.76 51.38C2.76 48.41 6.35 45.45 8.38 44.13C10.42 45.45 14 48.39 14 51.38C14 54.87 12.19 57.8 9.76 58.62L9.76 55.36C9.76 55 9.62 54.64 9.36 54.38C9.1 54.12 8.75 53.98 8.38 53.98C8.01 53.98 7.66 54.12 7.4 54.38C7.14 54.64 7 55 7 55.36L7 58.62C4.57 57.8 2.76 54.87 2.76 51.38Z" fill="#2B8761" fill-opacity="1.000000" fill-rule="nonzero"/>
</svg>
